The Voice - Australia Finalists, Breakfast Show Today - pKcMvA

Format                                   : AVI
Format/Info                              : Audio Video Interleave
File size                                : 47.3 MiB
Duration                                 : 9mn 3s
Overall bit rate                         : 731 Kbps

Video

Format                                   : MPEG-4 Visual
Format profile                           : Advanced Simple@L5
Format settings, BVOP                    : 2
Format settings, QPel                    : No
Format settings, GMC                     : No warppoints
Format settings, Matrix                  : Default (H.263)
Muxing mode                              : Packed bitstream
Codec ID                                 : XVID
Codec ID/Hint                            : XviD
Duration                                 : 9mn 3s
Bit rate                                 : 593 Kbps
Width                                    : 624 pixels
Height                                   : 352 pixels
Display aspect ratio                     : 16:9
Frame rate                               : 25.000 fps
Color space                              : YUV
Chroma subsampling                       : 4:2:0
Bit depth                                : 8 bits
Scan type                                : Progressive
Bits/(Pixel*Frame)                       : 0.108
Stream size                              : 38.4 MiB (81%)
Writing library                          : XviD 64

Audio

Format                                   : MPEG Audio
Format version                           : Version 1
Format profile                           : Layer 3
Codec ID                                 : 55
Codec ID/Hint                            : MP3
Duration                                 : 9mn 3s
Bit rate mode                            : Constant
Bit rate                                 : 128 Kbps
Channel(s)                               : 2 channels
Sampling rate                            : 44.1 KHz
Stream size                              : 8.29 MiB (18%)
Alignment                                : Split accross interleaves
Interleave, duration                     : 40 ms (1.00 video frame)